<svg width="580" height="328" viewBox="0 0 580 328" fill="none" xmlns="http://www.w3.org/2000/svg">
<rect width="580" height="328" rx="16" fill="url(#paint0_linear_1_16471)"/>
<rect x="0.5" y="0.5" width="579" height="327" rx="15.5" stroke="white" stroke-opacity="0.39"/>
<path d="M496.22 273V251.182H504.828C506.483 251.182 507.893 251.498 509.057 252.13C510.222 252.755 511.11 253.625 511.721 254.74C512.339 255.848 512.647 257.126 512.647 258.575C512.647 260.024 512.335 261.303 511.71 262.411C511.085 263.518 510.179 264.381 508.993 264.999C507.814 265.617 506.387 265.926 504.711 265.926H499.224V262.229H503.965C504.853 262.229 505.584 262.077 506.16 261.771C506.742 261.459 507.175 261.029 507.459 260.482C507.75 259.928 507.896 259.293 507.896 258.575C507.896 257.851 507.75 257.219 507.459 256.679C507.175 256.132 506.742 255.71 506.16 255.411C505.577 255.106 504.839 254.953 503.944 254.953H500.833V273H496.22ZM512.044 273V251.182H520.652C522.299 251.182 523.706 251.477 524.87 252.066C526.042 252.648 526.934 253.476 527.544 254.548C528.162 255.614 528.471 256.867 528.471 258.309C528.471 259.758 528.159 261.004 527.534 262.048C526.909 263.085 526.003 263.881 524.817 264.435C523.638 264.989 522.211 265.266 520.535 265.266H514.771V261.558H519.789C520.669 261.558 521.401 261.437 521.983 261.196C522.566 260.955 522.999 260.592 523.283 260.109C523.574 259.626 523.72 259.026 523.72 258.309C523.72 257.585 523.574 256.974 523.283 256.477C522.999 255.979 522.562 255.603 521.973 255.347C521.39 255.085 520.655 254.953 519.767 254.953H516.657V273H512.044ZM523.826 263.071L529.249 273H524.157L518.851 263.071H523.826ZM531.892 273H526.949L534.481 251.182H540.425L547.947 273H543.003L537.538 256.168H537.368L531.892 273ZM531.583 264.424H543.259V268.025H531.583V264.424ZM501.391 281.182V303H496.779V281.182H501.391ZM520.423 287.457C520.337 286.597 519.972 285.93 519.325 285.454C518.679 284.978 517.802 284.74 516.694 284.74C515.941 284.74 515.305 284.847 514.787 285.06C514.269 285.266 513.871 285.553 513.594 285.923C513.324 286.292 513.189 286.711 513.189 287.18C513.175 287.57 513.256 287.911 513.434 288.202C513.619 288.494 513.871 288.746 514.19 288.959C514.51 289.165 514.879 289.346 515.298 289.502C515.717 289.651 516.165 289.779 516.641 289.886L518.601 290.354C519.553 290.567 520.426 290.852 521.222 291.207C522.017 291.562 522.706 291.999 523.288 292.517C523.871 293.036 524.322 293.646 524.641 294.349C524.968 295.053 525.135 295.859 525.142 296.768C525.135 298.103 524.794 299.261 524.119 300.241C523.452 301.214 522.486 301.97 521.222 302.51C519.965 303.043 518.448 303.309 516.673 303.309C514.911 303.309 513.377 303.039 512.07 302.499C510.771 301.96 509.755 301.161 509.024 300.102C508.299 299.037 507.919 297.719 507.884 296.15H512.347C512.397 296.881 512.607 297.492 512.976 297.982C513.352 298.465 513.853 298.831 514.478 299.08C515.11 299.321 515.824 299.442 516.619 299.442C517.401 299.442 518.079 299.328 518.654 299.101C519.237 298.874 519.688 298.558 520.007 298.153C520.327 297.748 520.487 297.283 520.487 296.757C520.487 296.267 520.341 295.855 520.05 295.521C519.766 295.187 519.347 294.903 518.793 294.669C518.246 294.435 517.575 294.222 516.779 294.03L514.403 293.433C512.564 292.986 511.112 292.286 510.046 291.335C508.981 290.383 508.452 289.101 508.459 287.489C508.452 286.168 508.803 285.013 509.514 284.026C510.231 283.039 511.215 282.268 512.465 281.714C513.715 281.161 515.135 280.884 516.726 280.884C518.345 280.884 519.759 281.161 520.966 281.714C522.18 282.268 523.125 283.039 523.8 284.026C524.475 285.013 524.823 286.157 524.844 287.457H520.423ZM531.645 303V281.182H546.347V284.985H536.258V290.184H545.59V293.987H536.258V299.197H546.389V303H531.645Z" fill="white"/>
<path d="M27.9333 257V237.364H34.7984C36.1663 237.364 37.2945 237.6 38.183 238.073C39.0714 238.54 39.733 239.169 40.1677 239.962C40.6023 240.748 40.8197 241.621 40.8197 242.58C40.8197 243.423 40.6695 244.12 40.369 244.67C40.075 245.219 39.6851 245.654 39.1993 245.974C38.7199 246.293 38.1989 246.53 37.6364 246.683V246.875C38.2373 246.913 38.8413 247.124 39.4486 247.508C40.0558 247.891 40.564 248.441 40.9731 249.157C41.3822 249.873 41.5867 250.749 41.5867 251.784C41.5867 252.768 41.363 253.654 40.9156 254.44C40.4681 255.226 39.7618 255.849 38.7966 256.31C37.8314 256.77 36.5754 257 35.0285 257H27.9333ZM30.3111 254.891H35.0285C36.5817 254.891 37.6844 254.59 38.3364 253.989C38.9947 253.382 39.3239 252.647 39.3239 251.784C39.3239 251.119 39.1545 250.506 38.8158 249.943C38.477 249.374 37.9944 248.92 37.368 248.582C36.7415 248.237 36.0001 248.064 35.1435 248.064H30.3111V254.891ZM30.3111 245.993H34.7217C35.4376 245.993 36.0832 245.852 36.6584 245.571C37.2401 245.29 37.7004 244.893 38.0391 244.382C38.3843 243.871 38.5569 243.27 38.5569 242.58C38.5569 241.717 38.2565 240.985 37.6556 240.384C37.0548 239.777 36.1023 239.473 34.7984 239.473H30.3111V245.993ZM46.8939 257V237.364H49.2717V254.891H58.3995V257H46.8939ZM79.2849 247.182C79.2849 249.253 78.911 251.043 78.1631 252.551C77.4152 254.06 76.3893 255.223 75.0853 256.041C73.7813 256.859 72.292 257.268 70.6173 257.268C68.9426 257.268 67.4532 256.859 66.1492 256.041C64.8453 255.223 63.8193 254.06 63.0715 252.551C62.3236 251.043 61.9497 249.253 61.9497 247.182C61.9497 245.111 62.3236 243.321 63.0715 241.812C63.8193 240.304 64.8453 239.141 66.1492 238.322C67.4532 237.504 68.9426 237.095 70.6173 237.095C72.292 237.095 73.7813 237.504 75.0853 238.322C76.3893 239.141 77.4152 240.304 78.1631 241.812C78.911 243.321 79.2849 245.111 79.2849 247.182ZM76.9838 247.182C76.9838 245.482 76.6993 244.047 76.1304 242.877C75.5679 241.707 74.8041 240.822 73.8389 240.221C72.8801 239.62 71.8062 239.32 70.6173 239.32C69.4284 239.32 68.3513 239.62 67.3861 240.221C66.4273 240.822 65.6634 241.707 65.0945 242.877C64.532 244.047 64.2508 245.482 64.2508 247.182C64.2508 248.882 64.532 250.317 65.0945 251.487C65.6634 252.657 66.4273 253.542 67.3861 254.143C68.3513 254.744 69.4284 255.044 70.6173 255.044C71.8062 255.044 72.8801 254.744 73.8389 254.143C74.8041 253.542 75.5679 252.657 76.1304 251.487C76.6993 250.317 76.9838 248.882 76.9838 247.182ZM100.484 243.5H98.1064C97.9658 242.816 97.7197 242.215 97.3681 241.697C97.023 241.18 96.6011 240.745 96.1025 240.393C95.6103 240.036 95.0638 239.767 94.4629 239.588C93.8621 239.409 93.2357 239.32 92.5837 239.32C91.3948 239.32 90.3177 239.62 89.3525 240.221C88.3937 240.822 87.6298 241.707 87.0609 242.877C86.4984 244.047 86.2172 245.482 86.2172 247.182C86.2172 248.882 86.4984 250.317 87.0609 251.487C87.6298 252.657 88.3937 253.542 89.3525 254.143C90.3177 254.744 91.3948 255.044 92.5837 255.044C93.2357 255.044 93.8621 254.955 94.4629 254.776C95.0638 254.597 95.6103 254.331 96.1025 253.98C96.6011 253.622 97.023 253.184 97.3681 252.666C97.7197 252.142 97.9658 251.541 98.1064 250.864H100.484C100.305 251.867 99.9793 252.765 99.5063 253.558C99.0333 254.35 98.4452 255.025 97.7421 255.581C97.0389 256.131 96.2495 256.549 95.3738 256.837C94.5045 257.125 93.5744 257.268 92.5837 257.268C90.909 257.268 89.4196 256.859 88.1156 256.041C86.8117 255.223 85.7857 254.06 85.0379 252.551C84.29 251.043 83.9161 249.253 83.9161 247.182C83.9161 245.111 84.29 243.321 85.0379 241.812C85.7857 240.304 86.8117 239.141 88.1156 238.322C89.4196 237.504 90.909 237.095 92.5837 237.095C93.5744 237.095 94.5045 237.239 95.3738 237.527C96.2495 237.814 97.0389 238.236 97.7421 238.792C98.4452 239.342 99.0333 240.013 99.5063 240.806C99.9793 241.592 100.305 242.49 100.484 243.5ZM105.727 257V237.364H108.105V247.105H108.335L117.156 237.364H120.262L112.016 246.223L120.262 257H117.386L110.559 247.872L108.105 250.634V257H105.727ZM139.618 243.5H137.24C137.1 242.816 136.854 242.215 136.502 241.697C136.157 241.18 135.735 240.745 135.236 240.393C134.744 240.036 134.198 239.767 133.597 239.588C132.996 239.409 132.37 239.32 131.718 239.32C130.529 239.32 129.452 239.62 128.486 240.221C127.528 240.822 126.764 241.707 126.195 242.877C125.632 244.047 125.351 245.482 125.351 247.182C125.351 248.882 125.632 250.317 126.195 251.487C126.764 252.657 127.528 253.542 128.486 254.143C129.452 254.744 130.529 255.044 131.718 255.044C132.37 255.044 132.996 254.955 133.597 254.776C134.198 254.597 134.744 254.331 135.236 253.98C135.735 253.622 136.157 253.184 136.502 252.666C136.854 252.142 137.1 251.541 137.24 250.864H139.618C139.439 251.867 139.113 252.765 138.64 253.558C138.167 254.35 137.579 255.025 136.876 255.581C136.173 256.131 135.384 256.549 134.508 256.837C133.638 257.125 132.708 257.268 131.718 257.268C130.043 257.268 128.554 256.859 127.25 256.041C125.946 255.223 124.92 254.06 124.172 252.551C123.424 251.043 123.05 249.253 123.05 247.182C123.05 245.111 123.424 243.321 124.172 241.812C124.92 240.304 125.946 239.141 127.25 238.322C128.554 237.504 130.043 237.095 131.718 237.095C132.708 237.095 133.638 237.239 134.508 237.527C135.384 237.814 136.173 238.236 136.876 238.792C137.579 239.342 138.167 240.013 138.64 240.806C139.113 241.592 139.439 242.49 139.618 243.5ZM144.861 257V237.364H147.238V246.108H157.709V237.364H160.087V257H157.709V248.217H147.238V257H144.861ZM167.052 257H164.559L171.77 237.364H174.224L181.434 257H178.942L173.074 240.47H172.92L167.052 257ZM167.973 249.33H178.021V251.439H167.973V249.33ZM188.271 237.364V257H185.893V237.364H188.271ZM210.01 237.364V257H207.708L197.008 241.582H196.816V257H194.439V237.364H196.74L207.478 252.82H207.67V237.364H210.01ZM231.221 257H225.161V237.364H231.49C233.394 237.364 235.024 237.757 236.379 238.543C237.735 239.323 238.773 240.445 239.496 241.908C240.218 243.366 240.579 245.111 240.579 247.143C240.579 249.189 240.215 250.95 239.486 252.426C238.757 253.897 237.696 255.028 236.303 255.821C234.909 256.607 233.215 257 231.221 257ZM227.539 254.891H231.068C232.691 254.891 234.037 254.577 235.104 253.951C236.172 253.325 236.968 252.433 237.492 251.276C238.016 250.119 238.278 248.741 238.278 247.143C238.278 245.558 238.019 244.194 237.501 243.049C236.984 241.899 236.21 241.017 235.181 240.403C234.152 239.783 232.87 239.473 231.336 239.473H227.539V254.891ZM245.968 257V237.364H257.819V239.473H248.346V246.108H257.205V248.217H248.346V254.891H257.972V257H245.968ZM264.31 237.364L270.139 253.893H270.369L276.199 237.364H278.692L271.482 257H269.027L261.817 237.364H264.31ZM283.15 257V237.364H295.001V239.473H285.528V246.108H294.388V248.217H285.528V254.891H295.155V257H283.15ZM300.687 257V237.364H303.065V254.891H312.193V257H300.687ZM333.078 247.182C333.078 249.253 332.704 251.043 331.956 252.551C331.209 254.06 330.183 255.223 328.879 256.041C327.575 256.859 326.085 257.268 324.411 257.268C322.736 257.268 321.247 256.859 319.943 256.041C318.639 255.223 317.613 254.06 316.865 252.551C316.117 251.043 315.743 249.253 315.743 247.182C315.743 245.111 316.117 243.321 316.865 241.812C317.613 240.304 318.639 239.141 319.943 238.322C321.247 237.504 322.736 237.095 324.411 237.095C326.085 237.095 327.575 237.504 328.879 238.322C330.183 239.141 331.209 240.304 331.956 241.812C332.704 243.321 333.078 245.111 333.078 247.182ZM330.777 247.182C330.777 245.482 330.493 244.047 329.924 242.877C329.361 241.707 328.597 240.822 327.632 240.221C326.673 239.62 325.6 239.32 324.411 239.32C323.222 239.32 322.145 239.62 321.179 240.221C320.221 240.822 319.457 241.707 318.888 242.877C318.325 244.047 318.044 245.482 318.044 247.182C318.044 248.882 318.325 250.317 318.888 251.487C319.457 252.657 320.221 253.542 321.179 254.143C322.145 254.744 323.222 255.044 324.411 255.044C325.6 255.044 326.673 254.744 327.632 254.143C328.597 253.542 329.361 252.657 329.924 251.487C330.493 250.317 330.777 248.882 330.777 247.182ZM338.476 257V237.364H345.111C346.652 237.364 347.911 237.642 348.889 238.198C349.873 238.748 350.602 239.492 351.075 240.432C351.548 241.371 351.785 242.42 351.785 243.577C351.785 244.734 351.548 245.785 351.075 246.731C350.609 247.677 349.886 248.431 348.908 248.994C347.93 249.55 346.677 249.828 345.15 249.828H340.394V247.719H345.073C346.128 247.719 346.975 247.537 347.614 247.172C348.253 246.808 348.717 246.316 349.004 245.696C349.298 245.069 349.445 244.363 349.445 243.577C349.445 242.79 349.298 242.087 349.004 241.467C348.717 240.847 348.25 240.362 347.604 240.01C346.959 239.652 346.102 239.473 345.035 239.473H340.854V257H338.476ZM357.015 257V237.364H368.866V239.473H359.393V246.108H368.252V248.217H359.393V254.891H369.019V257H357.015ZM374.552 257V237.364H381.187C382.721 237.364 383.98 237.626 384.964 238.15C385.949 238.668 386.678 239.38 387.151 240.288C387.624 241.196 387.86 242.228 387.86 243.385C387.86 244.542 387.624 245.568 387.151 246.463C386.678 247.358 385.952 248.061 384.974 248.572C383.996 249.077 382.746 249.33 381.225 249.33H375.856V247.182H381.148C382.197 247.182 383.04 247.028 383.68 246.722C384.325 246.415 384.792 245.98 385.08 245.418C385.374 244.849 385.521 244.171 385.521 243.385C385.521 242.599 385.374 241.912 385.08 241.324C384.786 240.735 384.316 240.282 383.67 239.962C383.025 239.636 382.171 239.473 381.11 239.473H376.93V257H374.552ZM383.795 248.179L388.627 257H385.866L381.11 248.179H383.795Z" fill="white"/>
<path d="M30.7049 297V277.364H38.4521C39.9414 277.364 41.2102 277.648 42.2585 278.217C43.3068 278.779 44.1058 279.562 44.6556 280.566C45.2117 281.563 45.4897 282.714 45.4897 284.018C45.4897 285.322 45.2085 286.472 44.646 287.469C44.0835 288.467 43.2685 289.243 42.201 289.799C41.1399 290.355 39.8551 290.634 38.3466 290.634H33.4088V287.306H37.6754C38.4745 287.306 39.1328 287.169 39.6506 286.894C40.1747 286.613 40.5647 286.226 40.8203 285.734C41.0824 285.235 41.2134 284.663 41.2134 284.018C41.2134 283.366 41.0824 282.797 40.8203 282.311C40.5647 281.819 40.1747 281.439 39.6506 281.17C39.1264 280.895 38.4617 280.758 37.6563 280.758H34.8566V297H30.7049ZM49.5864 297V277.364H57.3335C58.8165 277.364 60.0821 277.629 61.1304 278.159C62.1851 278.684 62.9873 279.428 63.537 280.393C64.0931 281.352 64.3712 282.48 64.3712 283.778C64.3712 285.082 64.0899 286.204 63.5274 287.143C62.9649 288.077 62.1499 288.793 61.0825 289.291C60.0214 289.79 58.7366 290.039 57.2281 290.039H52.0409V286.702H56.5569C57.3495 286.702 58.0079 286.594 58.532 286.376C59.0562 286.159 59.4461 285.833 59.7018 285.398C59.9639 284.964 60.0949 284.424 60.0949 283.778C60.0949 283.126 59.9639 282.576 59.7018 282.129C59.4461 281.681 59.053 281.343 58.5224 281.113C57.9983 280.876 57.3367 280.758 56.5377 280.758H53.738V297H49.5864ZM60.1908 288.064L65.0711 297H60.488L55.7131 288.064H60.1908ZM72.0897 297H67.6408L74.4196 277.364H79.7697L86.5389 297H82.0901L77.1714 281.851H77.018L72.0897 297ZM71.8117 289.282H82.3202V292.522H71.8117V289.282ZM94.454 277.364V297H90.3024V277.364H94.454ZM109.922 283.011C109.845 282.238 109.516 281.637 108.935 281.208C108.353 280.78 107.563 280.566 106.566 280.566C105.889 280.566 105.317 280.662 104.85 280.854C104.383 281.039 104.025 281.298 103.776 281.63C103.533 281.963 103.412 282.34 103.412 282.762C103.399 283.113 103.473 283.42 103.632 283.682C103.799 283.944 104.025 284.171 104.313 284.363C104.601 284.548 104.933 284.711 105.31 284.852C105.687 284.986 106.09 285.101 106.518 285.197L108.283 285.619C109.139 285.811 109.925 286.066 110.641 286.386C111.357 286.706 111.977 287.099 112.501 287.565C113.025 288.032 113.431 288.582 113.719 289.214C114.013 289.847 114.163 290.573 114.17 291.391C114.163 292.593 113.856 293.635 113.249 294.517C112.648 295.392 111.779 296.073 110.641 296.559C109.51 297.038 108.145 297.278 106.547 297.278C104.962 297.278 103.581 297.035 102.405 296.549C101.235 296.064 100.321 295.344 99.6629 294.392C99.0109 293.433 98.6689 292.248 98.637 290.835H102.654C102.699 291.493 102.888 292.043 103.22 292.484C103.559 292.919 104.009 293.248 104.572 293.472C105.141 293.689 105.783 293.798 106.499 293.798C107.202 293.798 107.813 293.695 108.33 293.491C108.855 293.286 109.261 293.002 109.548 292.637C109.836 292.273 109.98 291.854 109.98 291.381C109.98 290.94 109.849 290.57 109.587 290.269C109.331 289.969 108.954 289.713 108.455 289.502C107.963 289.291 107.359 289.099 106.643 288.927L104.505 288.39C102.849 287.987 101.542 287.358 100.583 286.501C99.6245 285.645 99.1483 284.491 99.1547 283.04C99.1483 281.851 99.4647 280.812 100.104 279.924C100.75 279.035 101.635 278.342 102.76 277.843C103.885 277.344 105.163 277.095 106.595 277.095C108.052 277.095 109.324 277.344 110.411 277.843C111.504 278.342 112.354 279.035 112.962 279.924C113.569 280.812 113.882 281.841 113.901 283.011H109.922ZM118.362 297V277.364H131.594V280.787H122.514V285.466H130.913V288.888H122.514V293.577H131.632V297H118.362ZM156.964 283.711C156.83 283.244 156.641 282.832 156.398 282.474C156.155 282.11 155.858 281.803 155.507 281.554C155.161 281.298 154.765 281.103 154.318 280.969C153.877 280.835 153.388 280.767 152.851 280.767C151.847 280.767 150.965 281.017 150.204 281.515C149.45 282.014 148.862 282.739 148.44 283.692C148.018 284.638 147.807 285.795 147.807 287.163C147.807 288.531 148.015 289.694 148.431 290.653C148.846 291.612 149.434 292.343 150.195 292.848C150.955 293.347 151.854 293.596 152.889 293.596C153.829 293.596 154.631 293.43 155.296 293.098C155.967 292.759 156.478 292.283 156.83 291.669C157.188 291.055 157.367 290.33 157.367 289.493L158.21 289.617H153.148V286.491H161.365V288.965C161.365 290.691 161.001 292.174 160.272 293.414C159.543 294.648 158.54 295.6 157.261 296.271C155.983 296.936 154.519 297.268 152.87 297.268C151.029 297.268 149.412 296.863 148.018 296.051C146.625 295.233 145.538 294.072 144.758 292.57C143.985 291.062 143.598 289.272 143.598 287.201C143.598 285.609 143.828 284.19 144.289 282.944C144.755 281.691 145.407 280.63 146.245 279.761C147.082 278.891 148.057 278.23 149.169 277.776C150.281 277.322 151.486 277.095 152.784 277.095C153.896 277.095 154.931 277.258 155.89 277.584C156.849 277.904 157.699 278.358 158.441 278.946C159.188 279.534 159.799 280.234 160.272 281.045C160.745 281.851 161.049 282.739 161.183 283.711H156.964ZM165.883 297V277.364H179.115V280.787H170.035V285.466H178.434V288.888H170.035V293.577H179.153V297H165.883ZM201.86 287.182C201.86 289.323 201.455 291.145 200.643 292.647C199.837 294.149 198.738 295.297 197.344 296.089C195.957 296.875 194.398 297.268 192.665 297.268C190.92 297.268 189.354 296.872 187.967 296.08C186.58 295.287 185.484 294.14 184.679 292.637C183.873 291.135 183.47 289.317 183.47 287.182C183.47 285.04 183.873 283.219 184.679 281.717C185.484 280.214 186.58 279.07 187.967 278.284C189.354 277.491 190.92 277.095 192.665 277.095C194.398 277.095 195.957 277.491 197.344 278.284C198.738 279.07 199.837 280.214 200.643 281.717C201.455 283.219 201.86 285.04 201.86 287.182ZM197.651 287.182C197.651 285.795 197.444 284.625 197.028 283.673C196.619 282.72 196.04 281.998 195.293 281.506C194.545 281.013 193.669 280.767 192.665 280.767C191.662 280.767 190.786 281.013 190.038 281.506C189.29 281.998 188.709 282.72 188.293 283.673C187.884 284.625 187.68 285.795 187.68 287.182C187.68 288.569 187.884 289.739 188.293 290.691C188.709 291.643 189.29 292.366 190.038 292.858C190.786 293.35 191.662 293.596 192.665 293.596C193.669 293.596 194.545 293.35 195.293 292.858C196.04 292.366 196.619 291.643 197.028 290.691C197.444 289.739 197.651 288.569 197.651 287.182ZM206.336 297V277.364H214.083C215.566 277.364 216.832 277.629 217.88 278.159C218.935 278.684 219.737 279.428 220.286 280.393C220.843 281.352 221.121 282.48 221.121 283.778C221.121 285.082 220.839 286.204 220.277 287.143C219.714 288.077 218.899 288.793 217.832 289.291C216.771 289.79 215.486 290.039 213.977 290.039H208.79V286.702H213.306C214.099 286.702 214.757 286.594 215.281 286.376C215.806 286.159 216.196 285.833 216.451 285.398C216.713 284.964 216.844 284.424 216.844 283.778C216.844 283.126 216.713 282.576 216.451 282.129C216.196 281.681 215.802 281.343 215.272 281.113C214.748 280.876 214.086 280.758 213.287 280.758H210.487V297H206.336ZM216.94 288.064L221.821 297H217.237L212.463 288.064H216.94ZM238.475 283.711C238.341 283.244 238.152 282.832 237.909 282.474C237.667 282.11 237.369 281.803 237.018 281.554C236.673 281.298 236.276 281.103 235.829 280.969C235.388 280.835 234.899 280.767 234.362 280.767C233.358 280.767 232.476 281.017 231.716 281.515C230.961 282.014 230.373 282.739 229.951 283.692C229.529 284.638 229.319 285.795 229.319 287.163C229.319 288.531 229.526 289.694 229.942 290.653C230.357 291.612 230.945 292.343 231.706 292.848C232.467 293.347 233.365 293.596 234.4 293.596C235.34 293.596 236.142 293.43 236.807 293.098C237.478 292.759 237.989 292.283 238.341 291.669C238.699 291.055 238.878 290.33 238.878 289.493L239.722 289.617H234.659V286.491H242.876V288.965C242.876 290.691 242.512 292.174 241.783 293.414C241.054 294.648 240.051 295.6 238.772 296.271C237.494 296.936 236.03 297.268 234.381 297.268C232.54 297.268 230.923 296.863 229.529 296.051C228.136 295.233 227.049 294.072 226.27 292.57C225.496 291.062 225.109 289.272 225.109 287.201C225.109 285.609 225.339 284.19 225.8 282.944C226.266 281.691 226.918 280.63 227.756 279.761C228.593 278.891 229.568 278.23 230.68 277.776C231.792 277.322 232.997 277.095 234.295 277.095C235.407 277.095 236.442 277.258 237.401 277.584C238.36 277.904 239.21 278.358 239.952 278.946C240.7 279.534 241.31 280.234 241.783 281.045C242.256 281.851 242.56 282.739 242.694 283.711H238.475ZM247.395 297V277.364H260.626V280.787H251.546V285.466H259.945V288.888H251.546V293.577H260.664V297H247.395ZM269.747 297L264.128 277.364H268.663L271.914 291.007H272.077L275.663 277.364H279.546L283.122 291.036H283.295L286.545 277.364H291.08L285.462 297H281.416L277.676 284.162H277.523L273.793 297H269.747ZM298.854 277.364V297H294.702V277.364H298.854ZM303.67 297V277.364H307.821V293.577H316.24V297H303.67ZM320.389 297V277.364H324.541V293.577H332.959V297H320.389Z" fill="white"/>
<defs>
<linearGradient id="paint0_linear_1_16471" x1="580" y1="220.985" x2="-1.22642e-05" y2="107.015" gradientUnits="userSpaceOnUse">
<stop stop-color="white" stop-opacity="0.23"/>
<stop offset="0.270901" stop-color="#CCCCCC" stop-opacity="0.19"/>
<stop offset="0.47045" stop-color="#B3B3B3" stop-opacity="0.15"/>
<stop offset="0.67" stop-color="#999999" stop-opacity="0.16"/>
</linearGradient>
</defs>
</svg>
