<svg width="52" height="53" viewBox="0 0 52 53" fill="none" xmlns="http://www.w3.org/2000/svg">
<path d="M0.21994 22.0833V0.265069H8.8279C10.4827 0.265069 11.8925 0.581121 13.0573 1.21322C14.2221 1.83822 15.1099 2.70825 15.7207 3.82331C16.3385 4.93126 16.6475 6.20967 16.6475 7.65854C16.6475 9.1074 16.335 10.3858 15.71 11.4938C15.085 12.6017 14.1795 13.4646 12.9934 14.0825C11.8144 14.7004 10.3868 15.0094 8.71071 15.0094H3.2242V11.3127H7.96497C8.85275 11.3127 9.58429 11.16 10.1596 10.8546C10.742 10.5421 11.1752 10.1124 11.4593 9.5655C11.7505 9.01152 11.8961 8.37587 11.8961 7.65854C11.8961 6.9341 11.7505 6.302 11.4593 5.76223C11.1752 5.21535 10.742 4.79277 10.1596 4.49447C9.57718 4.18908 8.83855 4.03638 7.94366 4.03638H4.83287V22.0833H0.21994ZM16.0438 22.0833V0.265069H24.6517C26.2995 0.265069 27.7057 0.559814 28.8705 1.1493C30.0423 1.73169 30.9337 2.5591 31.5445 3.63155C32.1624 4.69689 32.4713 5.95044 32.4713 7.3922C32.4713 8.84106 32.1588 10.0875 31.5338 11.1315C30.9088 12.1685 30.0033 12.9639 28.8172 13.5179C27.6382 14.0719 26.2107 14.3489 24.5345 14.3489H18.771V10.6415H23.7888C24.6695 10.6415 25.401 10.5208 25.9834 10.2793C26.5658 10.0378 26.999 9.67558 27.2831 9.19263C27.5743 8.70967 27.7199 8.10953 27.7199 7.3922C27.7199 6.66777 27.5743 6.05697 27.2831 5.55981C26.999 5.06265 26.5622 4.68623 25.9727 4.43055C25.3904 4.16777 24.6553 4.03638 23.7675 4.03638H20.6567V22.0833H16.0438ZM27.8264 12.1543L33.249 22.0833H28.1567L22.8513 12.1543H27.8264ZM35.8919 22.0833H30.9487L38.4807 0.265069H44.4253L51.9466 22.0833H47.0034L41.5382 5.25087H41.3678L35.8919 22.0833ZM35.583 13.5073H47.2591V17.1081H35.583V13.5073ZM5.39146 30.2651V52.0833H0.778534V30.2651H5.39146ZM24.4227 36.5399C24.3374 35.6806 23.9717 35.0129 23.3254 34.5371C22.6791 34.0612 21.8019 33.8233 20.694 33.8233C19.9411 33.8233 19.3055 33.9298 18.787 34.1429C18.2686 34.3489 17.8708 34.6365 17.5938 35.0058C17.324 35.3752 17.189 35.7942 17.189 36.2629C17.1748 36.6536 17.2565 36.9945 17.434 37.2857C17.6187 37.5769 17.8708 37.829 18.1904 38.0421C18.51 38.248 18.8794 38.4291 19.2984 38.5854C19.7174 38.7345 20.1649 38.8624 20.6407 38.9689L22.6009 39.4377C23.5526 39.6507 24.4262 39.9348 25.2217 40.2899C26.0171 40.645 26.7061 41.0818 27.2884 41.6003C27.8708 42.1188 28.3218 42.7296 28.6414 43.4327C28.9681 44.1358 29.135 44.9419 29.1421 45.851C29.135 47.1862 28.7941 48.3439 28.1194 49.324C27.4518 50.297 26.4859 51.0534 25.2217 51.5932C23.9646 52.1259 22.4482 52.3922 20.6727 52.3922C18.9113 52.3922 17.3772 52.1223 16.0704 51.5825C14.7707 51.0428 13.7551 50.2438 13.0235 49.1855C12.2991 48.1202 11.9191 46.8027 11.8836 45.2331H16.3474C16.3971 45.9646 16.6066 46.5754 16.9759 47.0655C17.3524 47.5485 17.8531 47.9142 18.4781 48.1628C19.1102 48.4043 19.824 48.525 20.6194 48.525C21.4007 48.525 22.0789 48.4114 22.6542 48.1841C23.2366 47.9568 23.6876 47.6408 24.0072 47.236C24.3268 46.8311 24.4866 46.3659 24.4866 45.8404C24.4866 45.3503 24.341 44.9384 24.0498 44.6046C23.7657 44.2708 23.3467 43.9867 22.7927 43.7523C22.2458 43.5179 21.5747 43.3048 20.7792 43.1131L18.4035 42.5165C16.564 42.069 15.1116 41.3695 14.0463 40.4178C12.9809 39.4661 12.4518 38.1841 12.4589 36.5719C12.4518 35.2509 12.8034 34.0967 13.5136 33.1095C14.2309 32.1223 15.2146 31.3517 16.4646 30.7977C17.7146 30.2438 19.135 29.9668 20.7259 29.9668C22.3453 29.9668 23.7586 30.2438 24.966 30.7977C26.1805 31.3517 27.1251 32.1223 27.7998 33.1095C28.4745 34.0967 28.8225 35.2402 28.8438 36.5399H24.4227ZM35.6449 52.0833V30.2651H50.3466V34.0683H40.2579V39.2672H49.5903V43.0705H40.2579V48.28H50.3893V52.0833H35.6449Z" fill="white"/>
</svg>
